<svg xmlns="http://www.w3.org/2000/svg" width="18" height="18" viewBox="0 0 18 18">
  <path id="Path_24" data-name="Path 24" d="M14,21a1,1,0,0,1-1-1V12a1,1,0,0,1,1-1h6a1,1,0,0,1,1,1v8a1,1,0,0,1-1,1ZM4,13a1,1,0,0,1-1-1V4A1,1,0,0,1,4,3h6a1,1,0,0,1,1,1v8a1,1,0,0,1-1,1Zm5-2V5H5v6ZM4,21a1,1,0,0,1-1-1V16a1,1,0,0,1,1-1h6a1,1,0,0,1,1,1v4a1,1,0,0,1-1,1Zm1-2H9V17H5Zm10,0h4V13H15ZM13,4a1,1,0,0,1,1-1h6a1,1,0,0,1,1,1V8a1,1,0,0,1-1,1H14a1,1,0,0,1-1-1Zm2,1V7h4V5Z" transform="translate(-3 -3)" fill="#fff"/>
</svg>
