<svg id="Group_5" data-name="Group 5" xmlns="http://www.w3.org/2000/svg" xmlns:xlink="http://www.w3.org/1999/xlink" width="26.486" height="26.486" viewBox="0 0 26.486 26.486">
  <defs>
    <clipPath id="clip-path">
      <rect id="Rectangle_4" data-name="Rectangle 4" width="26.486" height="26.486" fill="#fff"/>
    </clipPath>
  </defs>
  <g id="Group_4" data-name="Group 4" clip-path="url(#clip-path)">
    <path id="Path_10" data-name="Path 10" d="M.468,26.486c-.046-.035-.092-.072-.139-.1a.659.659,0,0,1-.308-.708.673.673,0,0,1,.643-.508c.56-.014,1.12-.006,1.681-.007h.28V14.584c-.084,0-.174-.01-.265-.012-.4-.007-.794.01-1.188-.025A1.218,1.218,0,0,1,.1,13.728a1.266,1.266,0,0,1,.231-1.352c.066-.08.141-.151.215-.224q1.947-1.948,3.9-3.893a.6.6,0,0,0,.2-.472q-.012-2.508,0-5.017a1.31,1.31,0,0,1,.992-1.394,2.025,2.025,0,0,1,.461-.046c.327-.007.656.014.982-.005A1.372,1.372,0,0,1,8.61,2.849c-.021.384,0,.771,0,1.23.113-.106.178-.165.24-.227L12.175.525a1.353,1.353,0,0,1,2.141,0Q20.058,6.268,25.8,12.008a2.435,2.435,0,0,1,.685.978V13.5a1.477,1.477,0,0,1-1.69,1.072c-.307-.02-.616,0-.933,0V25.159c.59,0,1.158.014,1.726,0a.843.843,0,0,1,.9.5v.362l-.466.466ZM13.256,1.4,1.408,13.248H3.985V25.143H22.51v-11.9H25.1L13.256,1.4M5.97,6.744c.427-.432.807-.805,1.17-1.195a.586.586,0,0,0,.144-.355c.014-.628.007-1.256.007-1.885V2.662H5.97Z" transform="translate(0 0)" fill="#fff"/>
    <path id="Path_11" data-name="Path 11" d="M117.152,189.46l-.859-.859,10.539-10.534.86.858-10.54,10.535" transform="translate(-108.759 -166.531)" fill="#fff"/>
    <path id="Path_12" data-name="Path 12" d="M117.833,176.516a2.643,2.643,0,1,1-2.639-2.653,2.661,2.661,0,0,1,2.639,2.653m-2.644,1.306a1.318,1.318,0,0,0,1.322-1.309,1.321,1.321,0,1,0-2.642,0,1.318,1.318,0,0,0,1.32,1.311" transform="translate(-105.257 -162.599)" fill="#fff"/>
    <path id="Path_13" data-name="Path 13" d="M217.381,276.063a2.645,2.645,0,1,1-2.633,2.659,2.649,2.649,0,0,1,2.633-2.659m.011,3.959a1.318,1.318,0,0,0,1.32-1.312,1.321,1.321,0,1,0-2.642,0,1.318,1.318,0,0,0,1.323,1.308" transform="translate(-200.835 -258.178)" fill="#fff"/>
  </g>
</svg>
