<svg xmlns="http://www.w3.org/2000/svg" width="24.736" height="23.811" viewBox="0 0 24.736 23.811">
  <g id="Group_3" data-name="Group 3" transform="translate(-8.75 -9.656)">
    <path id="Path_4" data-name="Path 4" d="M24.236,21.926a1.5,1.5,0,0,1-.831,1.111,2.416,2.416,0,0,1-.89.172q-8.8.014-17.609.007c-1.081,0-2.162,0-3.243,0A1.527,1.527,0,0,1,0,21.554Q0,15.637,0,9.72A1.509,1.509,0,0,1,1.122,8.136a2.31,2.31,0,0,1,.584-.064c1.144-.006,2.288,0,3.432-.008a.516.516,0,0,0,.331-.122Q7.653,5.777,9.823,3.6A2.53,2.53,0,0,1,13.59.475,2.519,2.519,0,0,1,14.4,3.607c.077.069.167.143.249.225q2.043,2.04,4.089,4.078a.577.577,0,0,0,.365.152c1.16.011,2.319.007,3.479.007a1.544,1.544,0,0,1,1.5.873,4.124,4.124,0,0,1,.152.393ZM10.42,4.39c-.064.076-.114.148-.175.209q-2.1,2.1-4.2,4.2a.906.906,0,0,1-.693.285c-1.223-.006-2.446,0-3.669,0-.506,0-.679.174-.679.683q0,5.881,0,11.763c0,.5.182.678.688.678H22.546c.5,0,.683-.177.683-.682q0-5.881,0-11.763c0-.507-.174-.678-.683-.679-1.223,0-2.446,0-3.669,0a.906.906,0,0,1-.692-.288q-2.1-2.116-4.215-4.22c-.059-.059-.122-.115-.182-.17a2.553,2.553,0,0,1-3.369-.02m3.211-1.872a1.513,1.513,0,1,0-3.026,0,1.513,1.513,0,1,0,3.026,0" transform="translate(9 10)" fill="#fff" stroke="#fff" stroke-width="0.5"/>
    <path id="Path_5" data-name="Path 5" d="M207.938,216.719q0-1.561,0-3.123a2.12,2.12,0,0,1,.014-.307.493.493,0,0,1,.955-.073.7.7,0,0,1,.035.209q0,2.473,0,4.947a.514.514,0,0,1-.358.528.506.506,0,0,1-.591-.239q-1.2-1.712-2.4-3.428a.479.479,0,0,0-.184-.169v.247c0,.986,0,1.972,0,2.958a.991.991,0,0,1-.108.446.377.377,0,0,1-.469.183,1.033,1.033,0,0,1-.378-.312.468.468,0,0,1-.045-.274q0-2.426,0-4.852a.514.514,0,0,1,.968-.308c.042.057.081.116.122.174l2.266,3.236c.043.061.09.12.135.18l.047-.023" transform="translate(-183.282 -190.248)" fill="#fff" stroke="#fff" stroke-width="0.5"/>
    <path id="Path_6" data-name="Path 6" d="M43.54,216.773c0,.475,0,.908,0,1.341a1.324,1.324,0,0,1-.037.327.478.478,0,0,1-.485.338.461.461,0,0,1-.454-.347,1.15,1.15,0,0,1-.037-.327q0-2.341,0-4.681c0-.519.177-.7.694-.7.575,0,1.151-.005,1.726,0a1.525,1.525,0,0,1,1.623,1.541c.017.322.009.646,0,.969a1.535,1.535,0,0,1-.417,1.059,4.647,4.647,0,0,1,.39.916,4.46,4.46,0,0,1,.018,1.083.5.5,0,0,1-.992,0c-.024-.29,0-.583-.019-.873a.5.5,0,0,0-.133-.3,1.05,1.05,0,0,0-.883-.357,9.212,9.212,0,0,1-.991.007m.012-1.029c.536,0,1.047.008,1.557,0a.434.434,0,0,0,.429-.423c.017-.377.016-.755,0-1.132a.406.406,0,0,0-.38-.417c-.531-.025-1.064-.008-1.607-.008Z" transform="translate(-31.002 -190.113)" fill="#fff" stroke="#fff" stroke-width="0.5"/>
    <path id="Path_7" data-name="Path 7" d="M128.763,213.737v1.5c.085,0,.168.013.251.013.576,0,1.151-.006,1.727,0a.494.494,0,0,1,.508.649.524.524,0,0,1-.554.353c-.552,0-1.1,0-1.656,0h-.272v1.515c.619,0,1.224,0,1.829,0a1.305,1.305,0,0,1,.281.022.484.484,0,0,1,.392.514.478.478,0,0,1-.456.459c-.243.017-.488.01-.733.01-.576,0-1.151,0-1.727,0-.423,0-.608-.187-.609-.607q0-2.413,0-4.826c0-.418.187-.619.6-.623.781-.007,1.561-.006,2.342,0a.523.523,0,0,1,.565.369.467.467,0,0,1-.231.562,1.032,1.032,0,0,1-.41.08c-.606.008-1.213,0-1.846,0" transform="translate(-111.171 -190.106)" fill="#fff" stroke="#fff" stroke-width="0.5"/>
    <path id="Path_8" data-name="Path 8" d="M299.71,213.764c-.3,0-.565,0-.832,0a1.428,1.428,0,0,1-.327-.037.483.483,0,0,1-.344-.482.476.476,0,0,1,.346-.458.866.866,0,0,1,.256-.036c.939,0,1.877,0,2.816,0,.347,0,.546.15.592.422a.464.464,0,0,1-.375.561,3.816,3.816,0,0,1-.541.032c-.166.005-.331,0-.5.006a.426.426,0,0,0-.078.025v.263q0,2.024,0,4.047c0,.465-.178.7-.519.7s-.5-.24-.5-.693q0-2.012,0-4.024Z" transform="translate(-271.527 -190.133)" fill="#fff" stroke="#fff" stroke-width="0.5"/>
    <path id="Path_9" data-name="Path 9" d="M140.434,137.12h-3.383c-.4-.007-.63-.2-.623-.52s.231-.495.624-.5q2.792,0,5.583,0c.418,0,.836,0,1.254,0a.548.548,0,0,1,.561.312.486.486,0,0,1-.329.67,1.419,1.419,0,0,1-.328.033q-1.68,0-3.359,0" transform="translate(-119.339 -118.034)" fill="#fff" stroke="#fff" stroke-width="0.5"/>
  </g>
</svg>
