<svg xmlns="http://www.w3.org/2000/svg" width="74.727" height="67.934" viewBox="0 0 74.727 67.934">
  <path id="Uplaod" d="M38.364,37.957,52.774,52.367l-4.8,4.8-6.21-6.208v18.97H34.967V50.956l-6.211,6.215-4.8-4.8ZM38.364,2A23.781,23.781,0,0,1,61.984,23.039a18.686,18.686,0,0,1-3.239,36.629V52.829a11.889,11.889,0,0,0-1.7-23.656,11.7,11.7,0,0,0-2.076.183,16.985,16.985,0,1,0-33.589-3.58,16.842,16.842,0,0,0,.381,3.578,11.891,11.891,0,0,0-4.389,23.372l.612.1v6.838a18.685,18.685,0,0,1-3.24-36.628A23.777,23.777,0,0,1,38.364,2Z" transform="translate(-1 -2)" fill="#cbcbcb"/>
</svg>
